<?xml version="1.0" encoding="UTF-8"?>
<svg xmlns="http://www.w3.org/2000/svg" xmlns:xlink="http://www.w3.org/1999/xlink" viewBox="0 0 301.67 294.72">
  <defs>
    <style>
      .cls-1 {
        mask: url(#mask);
      }

      .cls-2 {
        filter: url(#luminosity-noclip);
      }

      .cls-3 {
        fill: #eae3df;
      }

      .cls-4 {
        fill: #eaddd8;
      }

      .cls-5 {
        fill: #99867e;
      }

      .cls-6 {
        fill: #b7a49a;
      }

      .cls-7 {
        fill: #cdbcb2;
      }

      .cls-8 {
        fill: #afa098;
      }

      .cls-9 {
        fill: url(#linear-gradient-2);
        mix-blend-mode: hard-light;
        opacity: .61;
      }

      .cls-10 {
        fill: url(#linear-gradient);
        mix-blend-mode: multiply;
      }

      .cls-11 {
        isolation: isolate;
      }

      .cls-12 {
        mask: url(#mask-1);
      }
    </style>
    <filter id="luminosity-noclip" x="0" y=".35" width="179.06" height="201.75" color-interpolation-filters="sRGB" filterUnits="userSpaceOnUse">
      <feFlood flood-color="#fff" result="bg"/>
      <feBlend in="SourceGraphic" in2="bg"/>
    </filter>
    <filter id="luminosity-noclip-2" x="0" y="-8972.83" width="179.06" height="32766" color-interpolation-filters="sRGB" filterUnits="userSpaceOnUse">
      <feFlood flood-color="#fff" result="bg"/>
      <feBlend in="SourceGraphic" in2="bg"/>
    </filter>
    <mask id="mask-1" x="0" y="-8972.83" width="179.06" height="32766" maskUnits="userSpaceOnUse"/>
    <linearGradient id="linear-gradient" x1="0" y1="101.23" x2="179.06" y2="101.23" gradientUnits="userSpaceOnUse">
      <stop offset="0" stop-color="#fff"/>
      <stop offset=".25" stop-color="#fcfcfc"/>
      <stop offset=".39" stop-color="#f4f4f4"/>
      <stop offset=".5" stop-color="#e6e6e6"/>
      <stop offset=".59" stop-color="#d3d3d3"/>
      <stop offset=".68" stop-color="#bababa"/>
      <stop offset=".76" stop-color="#9a9a9a"/>
      <stop offset=".83" stop-color="#757575"/>
      <stop offset=".9" stop-color="#4a4a4a"/>
      <stop offset=".97" stop-color="#1b1b1b"/>
      <stop offset="1" stop-color="#000"/>
    </linearGradient>
    <mask id="mask" x="0" y=".35" width="179.06" height="201.75" maskUnits="userSpaceOnUse">
      <g class="cls-2">
        <g class="cls-12">
          <path class="cls-10" d="m179.06,82.34c0,66.15-53.43,119.76-119.34,119.76-18.81,0-36.59-4.36-52.41-12.14-.04-.11-.07-.21-.11-.32-.01-.04-.03-.08-.04-.12,0,0,0,0,0-.01-2.77-8.1-4.84-16.41-6.14-24.86-.06-.46-.11-.92-.16-1.38-.03-.25-.06-.5-.09-.75,0-.05-.01-.11-.02-.16-.03-.23-.05-.46-.07-.69-.19-1.92-.34-3.86-.45-5.81,0-.15-.02-.3-.02-.45H.22c-.14-2.62-.22-5.25-.22-7.9,0-20.32,4.12-39.68,11.56-57.29,1.87-4.4,3.93-8.7,6.16-12.89C43.37,38.46,86.08,8.89,132.14,1.12c4.79-.5,9.65-.75,14.56-.76,20.07,21.42,32.36,50.27,32.36,81.99Z"/>
        </g>
      </g>
    </mask>
    <linearGradient id="linear-gradient-2" x1="0" y1="101.23" x2="179.06" y2="101.23" gradientUnits="userSpaceOnUse">
      <stop offset="0" stop-color="#fff"/>
      <stop offset=".86" stop-color="#fff"/>
      <stop offset="1" stop-color="#fff"/>
    </linearGradient>
  </defs>
  <g class="cls-11">
    <g id="katman_2" data-name="katman 2">
      <g id="Layer_1" data-name="Layer 1">
        <g>
          <g>
            <path class="cls-7" d="m294.37,147.53c0,4.28-.18,8.52-.55,12.71-.12,1.52-.28,3.03-.45,4.53h0c-.04.36-.09.71-.13,1.06,0,.03,0,.05,0,.07-.79,6.35-1.98,12.59-3.56,18.66-.05.22-.11.43-.17.64-.19.76-.4,1.51-.61,2.26-12.58,44.73-45.76,80.83-88.67,97.41-2.67,1.04-5.39,2-8.14,2.88-.55.18-1.1.35-1.66.52-.05.01-.09.03-.14.04-13.63,4.17-28.1,6.41-43.1,6.41-.99,0-1.98,0-2.97-.03-.53,0-1.06-.02-1.59-.04-1.31-.04-2.62-.09-3.92-.17-8.64-.49-17.08-1.73-25.26-3.65-5.42-1.27-10.72-2.84-15.89-4.7-40.01-16.4-72.98-50.8-88.51-91.41-.04-.1-.08-.2-.12-.3-.42-1.09-.82-2.19-1.2-3.29-.02-.05-.04-.11-.06-.16-.12-.33-.24-.66-.35-1-.04-.11-.07-.21-.11-.32-.01-.04-.03-.08-.04-.12,0,0,0,0,0-.01-2.77-8.1-4.84-16.41-6.14-24.86-.06-.46-.11-.92-.16-1.38-.03-.25-.06-.5-.09-.75,0-.05-.01-.11-.02-.16-.03-.23-.05-.46-.07-.69-.19-1.92-.34-3.86-.45-5.81,0-.15-.02-.3-.02-.45H.22c-.14-2.62-.22-5.25-.22-7.9,0-20.32,4.12-39.68,11.56-57.29,1.87-4.4,3.93-8.7,6.16-12.89C43.37,38.46,86.08,8.89,132.14,1.12c4.79-.5,9.65-.75,14.56-.76.16,0,.32,0,.49,0,3.51,0,6.98.12,10.43.36.18.01.36.03.55.04.35.03.71.05,1.06.08,1.52.13,3.02.28,4.52.44.05,0,.11.01.16.02.33.04.65.07.98.11.05,0,.1.01.14.02,3.99.48,7.93,1.12,11.82,1.92,4.79.98,9.49,2.19,14.1,3.65,3.13,1.5,6.25,3.08,9.36,4.74.03.02.07.04.11.06.03.01.05.03.07.04.03.02.07.04.11.06.47.25.94.51,1.41.76.08.05.16.09.24.13,2.55,1.4,5.08,2.85,7.6,4.34.07.04.12.08.19.12,33.71,20.15,63.91,49.75,77.72,86.53,1.43,4.61,2.65,9.32,3.63,14.11,1.96,9.58,2.99,19.5,2.99,29.66Z"/>
            <g class="cls-1">
              <path class="cls-9" d="m179.06,82.34c0,66.15-53.43,119.76-119.34,119.76-18.81,0-36.59-4.36-52.41-12.14-.04-.11-.07-.21-.11-.32-.01-.04-.03-.08-.04-.12,0,0,0,0,0-.01-2.77-8.1-4.84-16.41-6.14-24.86-.06-.46-.11-.92-.16-1.38-.03-.25-.06-.5-.09-.75,0-.05-.01-.11-.02-.16-.03-.23-.05-.46-.07-.69-.19-1.92-.34-3.86-.45-5.81,0-.15-.02-.3-.02-.45H.22c-.14-2.62-.22-5.25-.22-7.9,0-20.32,4.12-39.68,11.56-57.29,1.87-4.4,3.93-8.7,6.16-12.89C43.37,38.46,86.08,8.89,132.14,1.12c4.79-.5,9.65-.75,14.56-.76,20.07,21.42,32.36,50.27,32.36,81.99Z"/>
            </g>
            <path class="cls-8" d="m291.38,117.87c-.98-4.79-2.19-9.5-3.63-14.11-10.14-27-29.11-50.12-51.82-68.48,10.48,12.65,19.06,26.69,24.81,41.98,1.43,4.61,2.65,9.32,3.63,14.11,1.96,9.58,2.99,19.5,2.99,29.66,0,4.28-.18,8.52-.55,12.71-.12,1.52-.28,3.03-.45,4.53h0c-.04.36-.09.71-.13,1.06,0,.03,0,.05,0,.07-.79,6.35-1.98,12.59-3.56,18.66-.05.22-.11.43-.17.64-.19.76-.4,1.51-.61,2.26-12.58,44.73-45.76,80.83-88.67,97.41-2.67,1.04-5.39,2-8.14,2.88-.55.18-1.1.35-1.66.52-.05.01-.09.03-.14.04-13.63,4.17-28.1,6.41-43.1,6.41-.99,0-1.98,0-2.97-.03-.53,0-1.06-.02-1.59-.04-1.31-.04-2.62-.09-3.92-.17-8.64-.49-17.08-1.73-25.26-3.65-5.42-1.27-10.72-2.84-15.89-4.7-12.85-5.27-24.96-12.4-36.02-20.99,16.81,20.75,38.6,37.47,63.03,47.49,5.16,1.86,10.47,3.43,15.89,4.7,8.18,1.92,16.62,3.16,25.26,3.65,1.3.08,2.61.13,3.92.17.53.02,1.06.03,1.59.04.99.03,1.98.03,2.97.03,14.99,0,29.47-2.24,43.1-6.41.05-.01.09-.03.14-.04.56-.17,1.11-.34,1.66-.52,2.75-.88,5.47-1.84,8.14-2.88,42.9-16.58,76.09-52.68,88.67-97.41.21-.75.42-1.5.61-2.26.06-.21.12-.42.17-.64,1.58-6.07,2.77-12.31,3.56-18.66,0-.02,0-.04,0-.07.05-.35.09-.7.13-1.06h0c.18-1.5.33-3.02.45-4.53.36-4.19.55-8.42.55-12.71,0-10.16-1.03-20.08-2.99-29.66Z"/>
            <path class="cls-6" d="m252.84,114.12c3.29-3.71,5.23-8.28,5.23-13.22,0-12.44-12.31-22.53-27.48-22.53s-27.48,10.09-27.48,22.53c0,11.77,11.02,21.43,25.06,22.44,0,.03,0,.06,0,.09,0,6.77,6.7,12.26,14.96,12.26s14.96-5.49,14.96-12.26c0-3.73-2.03-7.06-5.23-9.31Z"/>
            <g>
              <path class="cls-5" d="m207.45,105.25c0-12.44,12.31-22.53,27.48-22.53,7.34,0,13.99,2.36,18.92,6.2-4.86-6.33-13.46-10.54-23.27-10.54-15.18,0-27.48,10.09-27.48,22.53,0,6.42,3.28,12.21,8.54,16.31-2.66-3.47-4.2-7.57-4.2-11.97Z"/>
              <path class="cls-5" d="m232.39,124s.02-.06.03-.09c-1.14-.47-2.24-1-3.29-1.58.15,2.56,1.22,5.09,3,7.26-.41-1.85-.36-3.76.25-5.59Z"/>
            </g>
            <g>
              <path class="cls-3" d="m228.16,123.43s0-.06,0-.09c-8.55-.61-15.97-4.43-20.47-9.98,4.06,6.27,11.57,10.75,20.6,11.73-.09-.54-.14-1.09-.14-1.65Z"/>
              <path class="cls-3" d="m254.94,114.93c2.92-3.7,4.45-7.98,4.45-12.44,0-5.48-2.34-10.51-6.24-14.45,3.1,3.65,4.93,8.08,4.93,12.87s-1.94,9.5-5.23,13.22c3.2,2.25,5.23,5.59,5.23,9.31,0,6.77-6.7,12.26-14.96,12.26-7.07,0-12.99-4.02-14.55-9.43,1.27,6.1,7.64,10.74,15.29,10.74,8.56,0,15.53-5.82,15.53-12.98,0-3.43-1.61-6.68-4.45-9.1Z"/>
            </g>
            <path class="cls-5" d="m219.99,126.55c-.59-.4-1.28-.53-1.97-.66-.71-.14-1.41-.38-2.12-.56-1.45-.35-2.84-.82-4.19-1.45-2.64-1.23-5.04-2.9-7.06-5.01-4.29-4.48-6.3-10.68-5.81-16.84.14-1.74.49-3.48,1.02-5.14.57-1.79,1.48-3.35,2.31-5.02.2-.4-.35-.79-.66-.45-2.14,2.45-3.34,6.06-3.92,9.21-.6,3.29-.51,6.67.26,9.93,1.53,6.42,6,11.87,11.82,14.92,1.59.84,3.3,1.48,5.03,1.94.93.25,1.82.36,2.78.38.91.03,1.72.1,2.55-.36.38-.22.25-.71-.05-.91Z"/>
            <path class="cls-5" d="m266.18,100.73c-.38-2.91-1.16-5.76-2.36-8.43-2.23-4.95-5.74-9.15-10.24-12.19-2.39-1.61-5.25-3.1-8.17-3.34-.32-.03-.48.36-.19.53,2.11,1.26,4.33,2.28,6.38,3.67,2.08,1.41,3.96,3.07,5.64,4.94,3.5,3.91,5.8,8.91,6.54,14.11.21,1.47.3,2.95.29,4.44,0,.78-.04,1.56-.11,2.34-.03.37-.1.75-.1,1.12,0,.4.15.77.24,1.17.18.75,1.17.67,1.51.12.39-.65.58-1.15.66-1.92.08-.75.13-1.5.15-2.25.04-1.44-.04-2.88-.23-4.31Z"/>
            <path class="cls-5" d="m262.33,111.73c-.11-.04-.21-.05-.32-.03-.13.02-.29.09-.36.2-.12.17-.24.33-.32.52-.06.14-.12.29-.18.43-.08.2-.14.4-.2.61-.02.08-.06.16-.07.23-.02.09-.02.18-.02.27,0,.04,0,.09,0,.13.02.13.05.26.12.37.09.14.23.24.38.29.28.1.61.02.8-.2.19-.21.27-.47.34-.73.04-.15.1-.3.13-.46.03-.15.06-.31.09-.46.04-.21.04-.41.04-.62,0-.25-.19-.48-.42-.56Z"/>
            <path class="cls-5" d="m228.93,133.22c-.12-.14-.33-.18-.49-.07-.26.18-.52.35-.78.53-.26.18-.54.35-.79.54-.09.07-.16.15-.24.23-.13.15-.2.32-.14.51.06.2.27.33.47.32.14,0,.27-.09.39-.16.17-.09.3-.25.44-.37.11-.1.23-.21.34-.31.26-.24.53-.48.79-.73.14-.13.11-.37,0-.49Z"/>
            <path class="cls-5" d="m230.06,135.9c-.09-.03-.2-.04-.3,0-.11.04-.24.12-.28.24-.08.23-.17.46-.25.69-.05.15-.11.3-.15.45-.05.2.03.37.1.55.05.14.15.24.3.27.15.03.27-.03.38-.13.04-.04.09-.08.13-.12.1-.09.17-.2.2-.33.03-.12.05-.24.06-.36.04-.24.07-.48.11-.73.03-.23-.08-.46-.31-.54Z"/>
            <path class="cls-5" d="m255.11,137.56c-.04-.11-.11-.21-.17-.32-.09-.16-.19-.32-.28-.48-.18-.31-.4-.6-.61-.9-.13-.18-.35-.25-.55-.15-.18.08-.32.33-.23.53.16.36.31.73.5,1.07.09.16.17.31.26.47.13.24.28.48.57.53.17.03.42-.05.49-.23.06-.18.08-.33.02-.51Z"/>
            <path class="cls-5" d="m257.71,135.49c.01-.08,0-.15-.02-.23-.03-.06-.05-.13-.1-.19-.04-.06-.09-.11-.14-.16-.02-.02-.03-.02-.07-.05-.05-.03-.04-.03-.07-.05,0,0-.02,0-.03,0-.02,0-.05-.02-.08-.03-.02-.02-.05-.03-.07-.05-.07-.03-.15-.06-.22-.08-.15-.03-.31-.02-.45.02-.06.02-.11.05-.16.09-.05.04-.09.08-.11.14-.01.04-.03.07-.04.11-.01.06-.01.12,0,.18,0,.04.01.08.04.11.02.06.06.11.11.15.03.02.07.04.1.07.04.02.09.02.13.03,0,.02.01.04.02.06.02.05.05.1.07.15.02.04.06.05.08.08,0,0,0,.02.01.03.03.04.06.07.09.11.04.03.07.05.11.08.06.03.12.05.19.05.04,0,.09,0,.13,0,.05,0,.09-.02.13-.04.05-.01.08-.04.12-.07.06-.04.1-.09.13-.16.02-.05.04-.1.05-.15,0-.01.02-.03.02-.04.02-.05.03-.1.03-.15Z"/>
            <path class="cls-5" d="m263.04,122.02c-.16-.87-.34-1.86-.89-2.58-.24-.32-.7-.16-.72.23-.04.85.23,1.73.31,2.58.08.82.13,1.63.1,2.45-.03.82-.14,1.63-.32,2.43-.09.4-.19.8-.29,1.19-.11.42-.26.87-.09,1.3.13.32.44.42.74.26.75-.4.93-1.69,1.08-2.45.17-.89.27-1.8.29-2.71.02-.9-.03-1.82-.19-2.71Z"/>
            <path class="cls-5" d="m249.61,138.4c-1.22.12-2.39.6-3.61.78-1.18.18-2.39.24-3.58.19-2.55-.11-4.85-.82-7.24-1.66-.41-.14-.92.4-.48.71,2.13,1.51,4.89,2.26,7.47,2.48,1.3.11,2.61.1,3.91-.06,1.3-.16,2.85-.36,3.97-1.09.59-.39.31-1.43-.44-1.36Z"/>
            <path class="cls-5" d="m208.84,128.31c-.33-.88-1.36-1.11-2.14-1.5-.74-.37-1.46-.8-2.13-1.28-1.39-.99-2.7-2.17-3.79-3.48-1.08-1.3-2.04-2.75-2.72-4.3-.34-.77-.62-1.57-.87-2.37-.27-.88-.38-1.79-.62-2.67-.15-.53-.85-.32-.89.16-.12,1.73.47,3.7,1.07,5.3.65,1.75,1.52,3.43,2.62,4.94,1.09,1.5,2.36,2.85,3.84,3.97.74.56,1.52,1.08,2.34,1.54.72.4,1.9,1.2,2.73.81.41-.2.76-.62.58-1.11Z"/>
            <path class="cls-5" d="m210.34,81.44c-.05-.07-.11-.13-.19-.17-.09-.05-.27-.07-.36-.03-.08.04-.16.08-.24.13-.04.03-.09.06-.13.09-.08.05-.17.11-.25.16-.11.08-.22.15-.33.24-.04.03-.07.07-.11.1-.08.07-.12.16-.14.25,0,0,0,0,0,.01-.11.24.06.5.33.5,0,0,0,0,0,0,.09.02.19.01.28-.03.05-.02.1-.04.14-.06.13-.06.24-.13.35-.2.08-.05.17-.11.25-.16.04-.03.08-.05.13-.08.08-.05.15-.11.22-.17.02-.03.05-.07.07-.1.03-.06.05-.12.05-.18,0-.1-.01-.22-.07-.3Z"/>
            <path class="cls-5" d="m267.03,124.45c-.01-.36-.12-.72-.2-1.08-.07-.32-.15-.65-.22-.97-.04-.16-.07-.32-.11-.48-.04-.19-.11-.35-.2-.53-.11-.23-.31-.4-.58-.35-.27.05-.41.26-.43.53,0,.18-.02.35.01.53.03.18.06.35.08.52.05.33.1.65.15.98.06.36.09.73.21,1.07.12.32.37.85.8.78.43-.08.48-.67.47-1.01Z"/>
            <g>
              <circle class="cls-6" cx="78.18" cy="82.74" r="27.85"/>
              <ellipse class="cls-6" cx="86.72" cy="89.71" rx="31.13" ry="29.52"/>
              <path class="cls-4" d="m100.64,66.47c3.42,4.75,5.4,10.62,5.24,16.95-.34,14.29-11.71,26.17-25.97,27.1-8.96.58-17.08-3.07-22.56-9.16,5.37,7.45,14.33,12.14,24.35,11.53,14.15-.87,25.51-12.49,26.07-26.66.3-7.61-2.45-14.57-7.13-19.76Z"/>
              <path class="cls-5" d="m78.18,54.89c-15.38,0-27.85,12.47-27.85,27.85,0,9.63,4.89,18.12,12.33,23.12-3.4-4.62-5.41-10.32-5.41-16.49,0-15.38,12.47-27.85,27.85-27.85,5.75,0,11.09,1.74,15.52,4.72-5.07-6.88-13.23-11.35-22.44-11.35Z"/>
            </g>
            <g>
              <path class="cls-6" d="m178.72,49.85c-1.45,0-2.83.3-4.07.83-2.24-1.38-4.91-2.18-7.77-2.18-7.89,0-14.3,6.07-14.3,13.55s6.4,13.55,14.3,13.55c5.32,0,9.95-2.75,12.42-6.84,5.25-.28,9.42-4.4,9.42-9.44s-4.47-9.47-9.99-9.47Z"/>
              <path class="cls-6" d="m175.98,48.15c-1.63,0-3.16.45-4.48,1.21-2.27-2.04-5.26-3.3-8.55-3.3-7.06,0-12.79,5.73-12.79,12.79s5.73,12.79,12.79,12.79c4.53,0,8.5-2.36,10.77-5.91.72.19,1.47.3,2.25.3,4.93,0,8.94-4,8.94-8.94s-4-8.94-8.94-8.94Z"/>
              <path class="cls-5" d="m172.84,50.74c-.11.02-.21.04-.32.07-.56-.32-1.15-.6-1.76-.84-1.43-.56-3-.87-4.63-.87-7.06,0-12.79,5.72-12.79,12.79,0,2.84.93,5.45,2.49,7.58-3.42-2.3-5.66-6.2-5.66-10.62,0-7.06,5.73-12.79,12.79-12.79,3.32,0,6.33,1.26,8.61,3.34.46.41.89.85,1.27,1.34Z"/>
              <path class="cls-5" d="m182.78,63.14c.7-1.56.96-3.34.64-5.16-.83-4.86-5.45-8.12-10.32-7.29-.09.01-.18.03-.26.05-.11.02-.21.04-.32.07-.56-.32-1.15-.6-1.76-.84.25-.21.52-.4.8-.57.97-.62,2.06-1.06,3.26-1.26,4.86-.83,9.49,2.43,10.32,7.29.51,2.91-.47,5.73-2.37,7.71Z"/>
              <path class="cls-4" d="m175.02,65.97c-.11.2-.22.41-.35.61-2.12,3.46-5.83,5.85-10.11,6.11-4.6.28-8.71-1.87-11.18-5.3,2.52,2.8,6.25,4.47,10.36,4.21,3.96-.26,7.43-2.35,9.59-5.42.11-.15.22-.3.32-.46.45.12.9.2,1.37.25Z"/>
              <path class="cls-4" d="m173.65,65.72c.45.12.9.2,1.37.25.49.05,1,.06,1.51.03,4.58-.3,8.23-4.11,8.33-8.69.05-2.04-.58-3.92-1.68-5.44,1.5,1.66,2.39,3.9,2.29,6.34-.18,4.55-3.82,8.27-8.37,8.56-.84.05-1.66-.01-2.43-.18-.46-.1-.91-.23-1.34-.4l.32-.46Z"/>
            </g>
            <g>
              <circle class="cls-6" cx="153.19" cy="141.41" r="18.16" transform="translate(-11.05 269.82) rotate(-80.73)"/>
              <ellipse class="cls-6" cx="158.76" cy="145.95" rx="20.3" ry="19.25"/>
              <path class="cls-4" d="m167.83,130.79c2.23,3.1,3.52,6.92,3.42,11.05-.22,9.32-7.63,17.07-16.94,17.67-5.84.38-11.14-2-14.71-5.97,3.5,4.86,9.34,7.92,15.88,7.52,9.23-.57,16.63-8.15,17-17.39.2-4.96-1.6-9.5-4.65-12.89Z"/>
              <path class="cls-5" d="m153.19,123.25c-10.03,0-18.16,8.13-18.16,18.16,0,6.28,3.19,11.82,8.04,15.08-2.22-3.01-3.53-6.73-3.53-10.76,0-10.03,8.13-18.16,18.16-18.16,3.75,0,7.23,1.14,10.12,3.08-3.31-4.49-8.63-7.4-14.63-7.4Z"/>
            </g>
            <g>
              <path class="cls-6" d="m.78,162.54c.03.25.05.5.09.75.05.46.1.92.16,1.38,1.3,8.45,3.37,16.76,6.14,24.86,0,0,0,.01,0,.01.01.04.03.08.04.12.14.01.28.02.43.03.2,0,.39.01.59.01.12.01.24.01.36.01.07,0,.14,0,.22,0,.07,0,.14,0,.22,0h.14c.18-.01.37-.02.55-.03,9.5-.57,17.03-8.46,17.03-18.12,0-3.73-1.12-7.19-3.05-10.07-.16-.23-.32-.46-.48-.68h0c-.31-.43-.63-.83-.98-1.22-.11-.13-.22-.26-.34-.38-.17-.18-.34-.36-.52-.53-.19-.19-.38-.37-.58-.55,0-.01-.01-.02-.02-.02-.11-.11-.23-.2-.34-.3t-.01,0c-.09-.08-.18-.16-.27-.23l-.02-.02c-.22-.18-.45-.36-.68-.53-.22-.17-.45-.34-.68-.49-.01-.01-.03-.03-.05-.03-.23-.16-.47-.31-.7-.45l-.02-.02c-.2-.12-.41-.24-.62-.35-.46-.26-.93-.49-1.42-.7-.15-.07-.31-.14-.47-.2,0,0-.01,0-.02,0-.21-.09-.43-.17-.64-.25-.2-.08-.41-.15-.62-.21-.67-.22-1.37-.41-2.07-.55-.24-.05-.49-.09-.73-.12-.04-.01-.09-.02-.12-.02-.23-.04-.46-.07-.69-.09-.11-.01-.22-.03-.34-.03-.01,0-.02,0-.03,0-.24-.03-.47-.05-.7-.05-.31-.02-.62-.03-.93-.03-3.02,0-5.86.74-8.36,2.04H.22c0,.16.01.3.02.45.11,1.95.26,3.89.45,5.81l.09.85Z"/>
              <path class="cls-6" d="m34.45,176.09c0,10.62-9.09,19.25-20.3,19.25-1.76,0-3.48-.21-5.11-.62-.04-.1-.08-.2-.12-.3-.42-1.09-.82-2.19-1.2-3.29-.02-.05-.04-.11-.06-.16-.16-.43-.31-.87-.46-1.31-.01-.04-.03-.08-.04-.12,0,0,0,0,0-.01-2.77-8.1-4.84-16.41-6.14-24.86-.06-.46-.11-.92-.16-1.38-.03-.25-.06-.5-.09-.75l-.09-.85c3.58-3.02,8.29-4.85,13.46-4.85,2.19,0,4.3.33,6.27.94t.01,0c8.13,2.5,14.02,9.75,14.02,18.31Z"/>
              <path class="cls-4" d="m27.87,173.82c-.36,9.24-7.77,16.82-17,17.39-1.07.07-2.13.04-3.15-.08-.02-.05-.04-.11-.06-.16-.16-.43-.31-.87-.46-1.31.14.01.28.02.43.03.2,0,.39.01.59.01.19,0,.38,0,.58,0,.07,0,.14,0,.22,0h.14c.18-.01.37-.02.55-.03,9.3-.6,16.71-8.35,16.93-17.67.1-4.13-1.18-7.96-3.42-11.06.16.18.32.35.47.54,2.76,3.32,4.36,7.64,4.18,12.35Z"/>
              <path class="cls-5" d="m.78,162.54c3.23-3,7.56-4.83,12.31-4.83,3.75,0,7.22,1.14,10.12,3.08-.31-.42-.63-.82-.98-1.21-.11-.13-.22-.26-.34-.38-.17-.18-.34-.36-.52-.53-.19-.19-.38-.37-.58-.55,0-.01-.01-.02-.02-.02-.11-.11-.23-.2-.34-.3t-.01,0c-.09-.08-.18-.16-.27-.23l-.02-.02c-.22-.18-.45-.36-.68-.53-.22-.17-.45-.34-.68-.49-.01-.01-.03-.03-.05-.03-.23-.16-.47-.31-.7-.45l-.02-.02c-.2-.12-.41-.24-.62-.35-.46-.26-.93-.49-1.42-.7-.15-.07-.31-.14-.47-.2,0,0-.01,0-.02,0-.21-.09-.43-.17-.64-.25-.2-.08-.41-.15-.62-.21-.67-.22-1.37-.41-2.07-.55-.24-.05-.49-.09-.73-.12-.04-.01-.09-.02-.12-.02-.23-.04-.46-.07-.69-.09-.11-.01-.22-.03-.34-.03-.01,0-.02,0-.03,0-.24-.03-.47-.05-.7-.05-.31-.02-.62-.03-.93-.03-3.02,0-5.86.74-8.36,2.04H.22c0,.16.01.3.02.45.11,1.95.26,3.89.45,5.81l.09.85Z"/>
            </g>
            <g>
              <path class="cls-6" d="m190.45,286.94c0,.44-.01.88-.03,1.32-.05.01-.09.03-.14.04-13.63,4.17-28.1,6.41-43.1,6.41-.99,0-1.98,0-2.97-.03-.53,0-1.06-.02-1.59-.04-1.31-.04-2.62-.09-3.92-.17-.03-.1-.06-.2-.09-.3-.18-.65-.35-1.31-.48-1.98-.03-.15-.07-.31-.09-.46l-.02-.12c-.12-.64-.2-1.29-.27-1.94,0,0,0-.02,0-.03-.03-.22-.05-.43-.06-.65-.01-.17-.03-.34-.03-.51-.01-.22-.03-.45-.03-.68h0c0-.29-.01-.58-.01-.86,0-14.59,11.83-26.42,26.42-26.42.28,0,.55,0,.81.01.21,0,.41.01.62.03.2,0,.39.02.59.04.4.03.8.07,1.2.12.26.03.53.07.79.11.44.07.87.14,1.31.24.22.04.43.09.64.14.21.05.43.1.64.16.41.11.83.22,1.24.35.01,0,.03,0,.03.01.24.07.47.14.71.23.17.06.35.12.52.18.2.07.39.14.58.22.83.33,1.64.7,2.43,1.1.22.11.43.23.65.35.23.12.46.26.68.39.16.09.33.2.49.3.64.4,1.27.82,1.87,1.27.17.12.34.26.5.39.11.08.22.17.33.26.13.11.27.22.4.34.04.03.08.07.12.11.02.01.04.03.06.06h0c.66.57,1.29,1.17,1.89,1.8.15.15.3.31.43.47.14.15.28.31.42.47.46.53.89,1.07,1.31,1.63,0,0,0,0,0,0,.23.32.46.64.68.97,2.82,4.19,4.45,9.24,4.45,14.68Z"/>
              <path class="cls-6" d="m200.22,284.87c-2.67,1.04-5.39,2-8.14,2.88-.55.18-1.1.35-1.66.52-.05.01-.09.03-.14.04-13.63,4.17-28.1,6.41-43.1,6.41-.99,0-1.98,0-2.97-.03-.53,0-1.06-.02-1.59-.04-.02-.36-.03-.72-.03-1.09,0-15.47,13.22-28,29.54-28,3.18,0,6.25.48,9.12,1.37,0,0,0,0,0,0,8.96,2.75,16.04,9.46,18.96,17.95Z"/>
              <path class="cls-4" d="m192.08,287.74c-.55.18-1.1.35-1.66.52-.05.01-.09.03-.14.04.02-.24.03-.48.03-.72.14-6.01-1.73-11.58-4.97-16.09.22.25.45.51.66.76,3.53,4.24,5.78,9.61,6.08,15.48Z"/>
              <path class="cls-5" d="m185.31,271.28c-4.21-2.82-9.27-4.47-14.72-4.47-14.59,0-26.42,11.83-26.42,26.42,0,.49.01.97.04,1.45-.53,0-1.06-.02-1.59-.04-1.31-.04-2.62-.09-3.92-.17-.03-.1-.06-.2-.09-.3-.18-.65-.35-1.31-.48-1.98-.03-.15-.07-.31-.09-.46l-.02-.12c-.11-.64-.2-1.29-.27-1.94,0,0,0-.02,0-.03-.03-.22-.05-.43-.06-.65-.01-.17-.03-.34-.03-.51-.01-.22-.03-.45-.03-.68h0c0-.29-.01-.58-.01-.86,0-14.59,11.83-26.42,26.42-26.42.28,0,.55,0,.81.01.21,0,.41.01.62.03.2,0,.39.02.59.04.4.03.8.07,1.2.12.26.03.53.07.79.11.44.07.87.14,1.31.24.22.04.43.09.64.14.21.05.43.1.64.16.41.11.83.22,1.24.35.01,0,.03,0,.03.01.24.07.47.14.71.23.17.06.35.12.52.18.2.07.39.14.58.22.83.33,1.64.7,2.43,1.1.22.11.43.23.65.35.23.12.46.26.68.39.16.09.33.2.49.3.64.4,1.27.82,1.87,1.27.17.12.34.26.5.39.11.08.22.17.33.26.13.11.27.22.4.34.04.03.08.07.12.11.02.01.04.03.06.06h0c.66.57,1.29,1.17,1.89,1.8.15.15.3.31.43.47.14.15.28.31.42.47.46.53.89,1.07,1.31,1.63Z"/>
            </g>
            <circle class="cls-6" cx="53.63" cy="123.19" r="9.21" transform="translate(-70.81 72.55) rotate(-44.33)"/>
            <ellipse class="cls-6" cx="56.46" cy="125.49" rx="10.29" ry="9.76"/>
            <path class="cls-4" d="m61.06,117.81c1.13,1.57,1.78,3.51,1.73,5.6-.11,4.73-3.87,8.65-8.59,8.96-2.96.19-5.65-1.02-7.46-3.03,1.78,2.46,4.74,4.01,8.05,3.81,4.68-.29,8.43-4.13,8.62-8.82.1-2.51-.81-4.82-2.36-6.53Z"/>
            <path class="cls-5" d="m53.63,113.98c-5.09,0-9.21,4.12-9.21,9.21,0,3.19,1.62,5.99,4.08,7.65-1.12-1.53-1.79-3.41-1.79-5.45,0-5.09,4.12-9.21,9.21-9.21,1.9,0,3.67.58,5.13,1.56-1.68-2.28-4.37-3.75-7.42-3.75Z"/>
            <circle class="cls-6" cx="127.06" cy="181.85" r="9.21" transform="translate(-72.75 278.24) rotate(-80.81)"/>
            <ellipse class="cls-6" cx="129.88" cy="184.16" rx="10.29" ry="9.76"/>
            <path class="cls-4" d="m134.48,176.47c1.13,1.57,1.78,3.51,1.73,5.6-.11,4.73-3.87,8.65-8.59,8.96-2.96.19-5.65-1.02-7.46-3.03,1.78,2.46,4.74,4.01,8.05,3.81,4.68-.29,8.43-4.13,8.62-8.82.1-2.52-.81-4.82-2.36-6.53Z"/>
            <path class="cls-5" d="m127.06,172.65c-5.09,0-9.21,4.12-9.21,9.21,0,3.19,1.62,5.99,4.08,7.65-1.12-1.53-1.79-3.41-1.79-5.45,0-5.09,4.12-9.21,9.21-9.21,1.9,0,3.67.58,5.13,1.56-1.68-2.28-4.37-3.75-7.42-3.75Z"/>
            <g>
              <circle class="cls-6" cx="154.45" cy="229.2" r="6.46"/>
              <path class="cls-6" d="m163.66,230.82c0,3.78-3.24,6.85-7.23,6.85s-7.23-3.07-7.23-6.85,3.24-6.85,7.23-6.85,7.23,3.07,7.23,6.85Z"/>
              <path class="cls-4" d="m159.67,225.43c.79,1.1,1.25,2.46,1.22,3.94-.08,3.32-2.72,6.07-6.03,6.29-2.08.14-3.97-.71-5.24-2.13,1.25,1.73,3.33,2.82,5.65,2.68,3.29-.2,5.92-2.9,6.05-6.19.07-1.77-.57-3.38-1.65-4.59Z"/>
              <path class="cls-5" d="m154.45,222.74c-3.57,0-6.46,2.89-6.46,6.46,0,2.24,1.14,4.21,2.86,5.37-.79-1.07-1.26-2.4-1.26-3.83,0-3.57,2.89-6.46,6.46-6.46,1.33,0,2.57.4,3.6,1.1-1.18-1.6-3.07-2.64-5.21-2.64Z"/>
            </g>
            <g>
              <path class="cls-6" d="m200.58,11.88c-2.71,9.14-11.18,15.8-21.19,15.8-.24,0-.47,0-.71-.01-.2,0-.4-.01-.6-.03-.13,0-.26-.01-.39-.03-.16,0-.31-.02-.46-.04-.22-.01-.43-.04-.65-.07-.25-.03-.51-.07-.76-.11-.16-.02-.32-.05-.48-.08-.03,0-.06,0-.09-.02-.19-.03-.37-.07-.56-.12-.18-.04-.37-.08-.55-.12-.32-.08-.64-.16-.95-.26-2.19-.64-4.25-1.62-6.12-2.86,0,0,0,0,0,0-.01,0-.02-.01-.03-.02-.17-.12-.34-.24-.51-.35-.7-.5-1.36-1.04-2-1.62-.13-.12-.26-.24-.39-.36-.06-.05-.12-.11-.18-.17-.07-.07-.14-.13-.2-.2-.12-.12-.25-.25-.37-.38-.25-.26-.49-.51-.72-.78-.12-.14-.23-.27-.34-.41-.11-.13-.22-.26-.32-.39-.77-.98-1.46-2.02-2.06-3.13-.1-.19-.2-.38-.3-.57-.51-1-.94-2.04-1.29-3.12-.06-.18-.12-.35-.16-.53-.14-.47-.27-.96-.38-1.45-.05-.22-.1-.45-.14-.68-.03-.13-.05-.27-.07-.41-.03-.14-.05-.28-.07-.42-.1-.64-.17-1.29-.21-1.96-.02-.23-.03-.46-.03-.69,0-.24-.01-.48-.01-.72,0-.55.02-1.08.06-1.62,0-.09.01-.16.02-.24.02-.23.05-.46.07-.69.03-.28.07-.56.11-.83l1.67-1.36c1.52.13,3.02.28,4.52.44.05,0,.11.01.16.02.33.04.65.07.98.11.05,0,.1.01.14.02,3.99.48,7.93,1.12,11.82,1.92,4.79.98,9.49,2.19,14.1,3.65,3.13,1.5,6.25,3.08,9.36,4.74.03.02.07.04.11.06.03.01.05.03.07.04.03.02.07.04.11.06Z"/>
              <path class="cls-6" d="m165.59,0s-.08,0-.12,0c.04,0,.09,0,.12.01,0,0,0,0,0,0Zm44.25,17.11c-2.52-1.5-5.05-2.94-7.6-4.34-.08-.04-.16-.09-.24-.13-.47-.26-.95-.51-1.41-.76-.03-.02-.07-.04-.11-.06-.03-.01-.05-.03-.07-.04-.04-.02-.07-.04-.11-.06-3.11-1.66-6.23-3.24-9.36-4.74-4.61-1.45-9.31-2.67-14.1-3.65-3.89-.8-7.83-1.44-11.82-1.92-.05,0-.1-.01-.14-.02-.33-.04-.65-.07-.98-.11-.05,0-.11-.01-.16-.02-1.47,2.99-2.28,6.32-2.28,9.84,0,3.69.9,7.19,2.51,10.3,0,0,0,.01.01.02.03.07.07.13.11.2.12.24.26.49.39.73t0,0c4.2,7.26,12.33,12.18,21.68,12.18,11.42,0,21.03-7.34,23.86-17.3-.07-.04-.12-.08-.19-.12Z"/>
              <path class="cls-4" d="m202.24,12.77c-2.28,9.15-10.34,16.14-20.05,16.74-7.02.43-13.38-2.42-17.7-7.16t0,0c-.58-.63-1.12-1.29-1.62-1.99.39.43.8.86,1.23,1.26,2.54,2.4,5.65,4.21,9.11,5.18.32.1.63.18.95.26.18.05.37.09.55.12.18.05.37.09.56.12.03.01.07.02.09.02.16.03.32.06.48.08.25.05.51.08.76.11.22.03.43.06.65.07.15.02.3.03.46.04.13.01.26.02.39.03.2.01.4.02.6.03.69.02,1.38,0,2.08-.04,9.36-.62,17.14-7.16,19.71-15.81.03.02.07.04.11.06.47.25.94.51,1.41.76.08.05.16.09.24.13Z"/>
              <path class="cls-5" d="m167.07,23.92s-.02-.01-.03-.02c-.17-.12-.34-.24-.51-.35-.7-.5-1.36-1.04-2-1.62-.13-.12-.26-.24-.39-.36-.06-.05-.11-.1-.16-.15l-.22-.22c-.12-.12-.25-.25-.37-.38-.25-.26-.49-.51-.72-.78-.12-.14-.23-.27-.34-.41-.11-.13-.22-.26-.32-.39-.77-.98-1.46-2.02-2.06-3.13-.1-.19-.2-.38-.3-.57-.51-1-.94-2.04-1.29-3.12-.06-.18-.12-.35-.16-.53-.14-.47-.27-.96-.38-1.45-.05-.22-.1-.45-.14-.68-.03-.13-.05-.27-.07-.41-.03-.14-.05-.28-.07-.42-.1-.64-.17-1.29-.21-1.96-.02-.23-.03-.46-.03-.69,0-.24-.01-.48-.01-.72,0-.55.02-1.08.06-1.62,0-.09.01-.16.02-.24.02-.23.05-.46.07-.69.03-.28.07-.56.11-.83.09-.54.3-1.03.61-1.44.35.03.71.05,1.06.08,1.52.13,3.02.28,4.52.44.05,0,.11.01.16.02.33.04.65.07.98.11-1.35,2.86-2.1,6.06-2.1,9.44,0,4.9,1.6,9.42,4.29,13.09Z"/>
            </g>
            <circle class="cls-6" cx="88.8" cy="232.82" r="19.02" transform="translate(-157.91 197.82) rotate(-61.05)"/>
            <ellipse class="cls-6" cx="85.87" cy="239.75" rx="20.16" ry="21.26" transform="translate(-64.04 33.89) rotate(-16.36)"/>
            <path class="cls-4" d="m103.78,244.41c-2.45,3.16-5.92,5.58-10.1,6.7-9.43,2.52-19.4-2.64-22.76-11.81-2.11-5.76-1.27-11.79,1.66-16.55-3.85,4.95-5.2,11.73-2.87,18.18,3.29,9.11,13.09,14.31,22.49,11.96,5.04-1.27,9.08-4.41,11.58-8.47Z"/>
            <path class="cls-5" d="m107.05,227.46c-2.96-10.08-13.53-15.85-23.61-12.89-6.31,1.85-10.94,6.69-12.78,12.53,2.37-3.12,5.72-5.53,9.77-6.72,10.08-2.96,20.65,2.81,23.61,12.89,1.11,3.77.99,7.6-.11,11.08,3.54-4.65,4.9-10.85,3.13-16.89Z"/>
            <path class="cls-6" d="m72.03,229.06c-4.88,1.43-10-1.36-11.43-6.24-1.43-4.88,1.36-10,6.24-11.43,4.88-1.43,10,1.36,11.43,6.24,1.43,4.88-1.36,10-6.24,11.43Z"/>
            <path class="cls-6" d="m70.92,233.45c-5.17,1.52-10.66-1.67-12.26-7.13-1.6-5.45,1.29-11.11,6.47-12.62,5.17-1.52,10.66,1.67,12.26,7.13,1.6,5.45-1.29,11.11-6.47,12.62Z"/>
            <path class="cls-4" d="m76.69,225.83c-1.19,1.53-2.87,2.7-4.89,3.24-4.57,1.22-9.39-1.28-11.02-5.72-1.02-2.79-.62-5.71.8-8.01-1.86,2.4-2.52,5.68-1.39,8.8,1.59,4.41,6.34,6.93,10.89,5.79,2.44-.61,4.39-2.13,5.61-4.1Z"/>
            <path class="cls-5" d="m78.27,217.63c-1.43-4.88-6.55-7.67-11.43-6.24-3.06.9-5.29,3.24-6.19,6.06,1.15-1.51,2.77-2.68,4.73-3.25,4.88-1.43,10,1.36,11.43,6.24.54,1.82.48,3.68-.05,5.36,1.71-2.25,2.37-5.25,1.51-8.17Z"/>
            <path class="cls-6" d="m292.35,165.86s0,.05,0,.07c-.79,6.35-1.98,12.59-3.56,18.66-.05.22-.11.43-.17.64-.19.76-.4,1.51-.61,2.26-.15.01-.3.01-.45.01-6.27,0-11.35-5.08-11.35-11.35,0-.22,0-.43.02-.65,0-.07,0-.13.01-.19,0-.16.03-.32.05-.47,0-.07.01-.12.03-.19.01-.12.03-.25.05-.37.01-.11.03-.21.05-.32.03-.18.07-.35.12-.53.04-.16.09-.33.13-.49.12-.43.28-.85.45-1.25.04-.1.09-.2.13-.3.07-.15.14-.3.22-.44.1-.19.2-.37.31-.55.25-.43.53-.84.83-1.24.1-.12.2-.25.31-.37,0,0,.01-.02.03-.03.09-.11.18-.22.28-.32.08-.09.16-.17.24-.25.14-.15.3-.3.45-.44.26-.24.55-.47.84-.7.02-.01.05-.03.07-.05.15-.11.3-.22.46-.32l.02-.02c1.79-1.18,3.94-1.87,6.24-1.87,1.71,0,3.34.38,4.8,1.06Z"/>
            <path class="cls-6" d="m292.36,183.03s-.01.01-.02.02c0-.01.01-.03.02-.03.03-.03.07-.06.09-.09-.03.03-.06.07-.09.11Z"/>
            <path class="cls-6" d="m292.94,160.27c-.12,1.52-.28,3.03-.45,4.53h0c-.04.36-.09.71-.13,1.06,0,.03,0,.05,0,.07-.79,6.35-1.98,12.59-3.56,18.66-.05.22-.11.43-.17.64-5.8-.91-10.26-6.18-10.26-12.56,0-1.37.2-2.68.58-3.91,1.56-5.09,6.1-8.78,11.45-8.78.87,0,1.73.1,2.55.29Z"/>
            <path class="cls-6" d="m292.36,183.03s-.01.01-.02.02c0-.01.01-.03.02-.03.03-.03.07-.06.09-.09-.03.03-.06.07-.09.11Z"/>
            <path class="cls-4" d="m288.97,164.09c1.23.05,2.41.3,3.51.71h0c-.04.36-.09.71-.13,1.06,0,.03,0,.05,0,.07-1.39-.65-2.92-1.03-4.52-1.07-2.58-.06-4.97.74-6.91,2.14.12-.11.24-.21.37-.32l.02-.02c2.07-1.71,4.75-2.69,7.67-2.58Z"/>
            <path class="cls-5" d="m288.78,184.59c-.05.22-.11.43-.17.64-.19.76-.4,1.51-.61,2.26-.15.01-.3.01-.45.01-6.27,0-11.35-5.08-11.35-11.35,0-.22,0-.43.02-.65,0-.07,0-.13.01-.19,0-.16.03-.32.05-.47,0-.07.01-.12.03-.19.01-.12.03-.25.05-.37.01-.11.03-.21.05-.32.03-.18.07-.35.12-.53.04-.16.09-.33.13-.49.12-.43.28-.85.45-1.25.04-.1.09-.2.13-.3.07-.15.14-.3.22-.44.1-.19.2-.37.31-.55.25-.43.53-.84.83-1.24.1-.12.2-.25.31-.37,0,0,.01-.02.03-.03.09-.11.18-.22.28-.32.08-.09.16-.17.24-.25.14-.15.3-.3.45-.44.26-.24.55-.47.84-.7.02-.01.05-.03.07-.05-1.22,1.81-1.93,3.98-1.93,6.33,0,5.77,4.3,10.54,9.88,11.26Z"/>
            <path class="cls-5" d="m291.38,186.84c-.11.04-.22.08-.34.12,0,0-.01,0-.03,0,.01,0,.02,0,.03-.01.11-.03.23-.07.34-.11Z"/>
            <path class="cls-6" d="m291.04,186.95c.11-.03.23-.07.34-.11-.11.04-.22.08-.34.12h0Z"/>
            <path class="cls-6" d="m292.45,182.93s-.06.07-.09.11h0s.07-.07.09-.11Z"/>
            <path class="cls-6" d="m301.67,188.52c-.04.12-.09.23-.14.34.05-.11.1-.23.14-.34Z"/>
            <path class="cls-6" d="m301.53,188.86s-.01.03-.02.05c0-.02.01-.03.02-.05Z"/>
            <path class="cls-4" d="m300.5,190.43c.07-.04.14-.08.21-.12-.16.15-.34.3-.53.43.11-.1.22-.2.32-.31Z"/>
            <path class="cls-5" d="m291.04,186.95c.11-.03.23-.07.34-.11-.11.04-.22.08-.34.12h0Z"/>
            <path class="cls-5" d="m292.36,183.03s-.01.01-.02.02c0-.01.01-.03.02-.03.03-.03.07-.06.09-.09-.03.03-.06.07-.09.11Z"/>
            <circle class="cls-6" cx="211.55" cy="217.54" r="19.83"/>
            <ellipse class="cls-6" cx="217.63" cy="222.5" rx="22.16" ry="21.01"/>
            <path class="cls-4" d="m227.54,205.96c2.44,3.38,3.84,7.56,3.73,12.07-.24,10.18-8.33,18.63-18.49,19.29-6.38.42-12.16-2.19-16.06-6.52,3.82,5.3,10.2,8.64,17.34,8.21,10.08-.62,18.16-8.89,18.56-18.98.21-5.42-1.75-10.37-5.08-14.07Z"/>
            <path class="cls-5" d="m211.55,197.71c-10.95,0-19.83,8.88-19.83,19.83,0,6.86,3.48,12.9,8.78,16.46-2.42-3.29-3.85-7.35-3.85-11.74,0-10.95,8.88-19.83,19.83-19.83,4.09,0,7.89,1.24,11.05,3.36-3.61-4.9-9.42-8.08-15.97-8.08Z"/>
            <path class="cls-6" d="m234.29,200.47c0,3.62-2.93,6.55-6.55,6.55s-6.55-2.93-6.55-6.55,2.93-6.55,6.55-6.55,6.55,2.93,6.55,6.55Z"/>
            <ellipse class="cls-6" cx="229.75" cy="202.11" rx="7.33" ry="6.95"/>
            <path class="cls-4" d="m233.03,196.64c.81,1.12,1.27,2.5,1.23,3.99-.08,3.36-2.76,6.16-6.11,6.38-2.11.14-4.02-.72-5.31-2.16,1.26,1.75,3.37,2.86,5.73,2.71,3.33-.2,6-2.94,6.14-6.28.07-1.79-.58-3.43-1.68-4.65Z"/>
            <path class="cls-5" d="m227.74,193.92c-3.62,0-6.55,2.93-6.55,6.55,0,2.27,1.15,4.27,2.9,5.44-.8-1.09-1.27-2.43-1.27-3.88,0-3.62,2.93-6.55,6.55-6.55,1.35,0,2.61.41,3.65,1.11-1.19-1.62-3.11-2.67-5.28-2.67Z"/>
            <circle class="cls-7" cx="252.13" cy="181.46" r="7.06"/>
            <circle class="cls-7" cx="96.59" cy="195.16" r="7.06"/>
            <circle class="cls-7" cx="121.87" cy="265.55" r="9.42" transform="translate(-165.43 318.72) rotate(-75.83)"/>
            <circle class="cls-7" cx="252.13" cy="67.64" r="7.06"/>
          </g>
          <path class="cls-5" d="m113.65,225.91c-.07-1.51-.32-3.02-.71-4.47-.77-2.84-2.17-5.56-4.06-7.81-3.99-4.77-10.12-7.29-16.32-6.92-3.51.21-6.93,1.31-9.76,3.42-.65.49-.03,1.45.69,1.06,4.91-2.68,10.97-3.36,16.24-1.33,5.03,1.94,8.83,6.2,10.46,11.31.44,1.39.72,2.81.82,4.26.05.72.06,1.44.03,2.16-.03.81-.16,1.62.09,2.4.23.69,1.27,1.03,1.76.37.9-1.22.83-2.99.77-4.45Z"/>
          <path class="cls-5" d="m59.2,234.44c-.32-.97-1.5-1.63-2.14-2.4-.73-.88-1.3-1.89-1.66-2.97-.43-1.28-.56-2.62-.52-3.97.04-1.42.33-2.8.42-4.22.04-.73-1.02-.72-1.2-.1-.43,1.45-.6,3.01-.67,4.51-.07,1.5.03,3.02.49,4.46.38,1.19.98,2.33,1.75,3.31.67.86,1.77,2.23,2.99,2.15.38-.03.67-.41.54-.78Z"/>
          <path class="cls-5" d="m51.73,228.88s-.01-.04-.02-.05c.02-.19-.02-.4-.13-.53-.07-.09-.14-.18-.2-.28-.03-.05-.06-.1-.09-.15,0,0-.01-.02-.02-.03-.01-.04-.04-.09-.05-.12-.02-.05-.04-.11-.06-.16s-.03-.11-.05-.17c0-.03-.01-.06-.02-.08,0-.02,0-.03,0-.03-.01-.08-.03-.16-.05-.24,0,0,0,0,0,0-.02-.11-.02-.23-.02-.34,0-.02,0-.09,0-.12,0-.03,0-.06,0-.08.03-.16.03-.32.02-.48,0-.25-.19-.47-.41-.55-.25-.09-.48,0-.66.17-.26.25-.37.58-.45.92-.07.3-.12.65-.07.95.05.32.12.62.25.92.17.37.36.66.63.97.14.16.44.24.67.2.07.01.14.04.21.04.39.02.58-.41.51-.73Z"/>
          <path class="cls-5" d="m212.84,192.93c-1.36-.59-3.1-.4-4.54-.24-1.64.19-3.26.5-4.86.94-3.05.84-6.02,2.13-8.63,3.93-4.92,3.39-8.56,8.84-8.98,14.9-.11,1.58,0,3.16.37,4.7.12.51.93,3.61,1.92,2.98.79-.5-.02-2.36-.12-3.06-.19-1.23-.26-2.5-.15-3.74.22-2.64,1.03-5.18,2.31-7.5,2.78-5.02,7.81-8.21,13.2-9.83,1.56-.47,3.17-.82,4.78-1.1,1.54-.27,3.35-.3,4.75-1.04.36-.19.31-.79-.05-.95Z"/>
          <path class="cls-5" d="m231.45,189.8c-.49,0-.97.04-1.46.06-.49.02-.97.04-1.46.07-.53.02-1.04.13-1.56.21-.33.05-.45.59-.05.64.52.06,1.03.15,1.55.15h1.46c.49,0,.98.01,1.46,0,.43,0,1.25.03,1.3-.56.05-.64-.85-.58-1.25-.58Z"/>
          <path class="cls-5" d="m233.32,186.86c-.04-.23-.21-.38-.43-.45-.22-.07-.44-.01-.66.02-.22.03-.44.06-.66.1-.17.03-.35.07-.52.11-.2.04-.43.1-.58.24-.01,0-.02,0-.03.01-.14.06-.24.17-.23.33,0,.14.12.28.26.31.03,0,.06.01.09.02.08.04.16.07.26.08.12.02.24.02.37.02.19,0,.37,0,.56,0,.19,0,.37-.03.56-.04l.27-.02c.19-.01.34-.06.5-.15.19-.11.28-.36.24-.57Z"/>
          <path class="cls-5" d="m176.57,143.88c-.11-1.15-.27-2.68-1.02-3.59-.06-.07-.19-.07-.21.04-.26,1.12.01,2.46.01,3.61,0,1.24-.05,2.47-.25,3.69-.41,2.48-1.31,4.86-2.66,6.97-1.24,1.93-2.87,3.62-4.73,4.96-.89.64-1.84,1.2-2.81,1.7-.53.27-1.08.48-1.61.72-.53.24-.99.59-1.5.84-.54.26-.21,1.19.36,1.12.32-.04.62.03.95-.03.32-.06.67-.16.98-.26.55-.19,1.09-.46,1.61-.72,1.14-.56,2.21-1.24,3.21-2.02,1.95-1.53,3.61-3.37,4.9-5.49,1.38-2.28,2.28-4.87,2.65-7.51.18-1.32.28-2.7.15-4.03Z"/>
          <path class="cls-5" d="m158.67,163.71c-.29-.06-.59-.11-.88-.18-.28-.06-.56-.17-.84-.22-.33-.06-.66-.08-1-.08-.24,0-.46,0-.68.12-.12.07-.26.15-.34.27-.13.18-.14.36-.04.56.07.13.19.23.3.32.19.16.41.18.64.22.33.05.66.09,1,.08.29,0,.58-.06.86-.08.3-.02.6-.02.9-.03.56-.02.63-.86.08-.97Z"/>
          <path class="cls-5" d="m141.71,181.99c-.17-.67-1.17-.45-1.16.21.03,1.39.03,2.73-.33,4.09-.34,1.3-.95,2.56-1.79,3.62-.76.97-1.68,1.79-2.72,2.45-.53.33-1.08.62-1.66.85-.56.23-1.31.45-1.7.93-.22.26-.18.73.17.88,1.26.53,2.99-.53,4.03-1.18,1.24-.79,2.34-1.81,3.19-3.01,1.73-2.44,2.74-5.86,1.97-8.82Z"/>
          <path class="cls-5" d="m125.49,193.88c-.1-.1-.21-.14-.34-.18-.13-.05-.23-.07-.37-.08-.22-.03-.45-.06-.67-.07-.35-.01-.7-.01-1.05-.02-.28,0-.51.26-.54.52-.02.28.17.54.44.6.34.08.69.17,1.03.24.17.04.34.05.51.07.3.04.62.07.9-.1.17-.1.26-.28.28-.47.02-.21-.06-.37-.2-.51Z"/>
          <path class="cls-5" d="m121.47,171.35c-.23-.09-.45-.19-.71-.18-.25,0-.53.12-.76.21-.44.17-.88.38-1.27.64-.83.56-1.53,1.28-2.09,2.11-.54.81-.94,1.7-1.09,2.67-.07.47-.13.95-.12,1.43,0,.46,0,1.07.42,1.35.12.09.33.12.43-.03.26-.38.18-.78.18-1.22,0-.4.06-.81.16-1.2.2-.77.56-1.56,1.02-2.22.46-.67,1.05-1.26,1.72-1.7.32-.21.67-.42,1.02-.57.22-.09.45-.15.66-.26.21-.11.35-.28.52-.44.17-.15.1-.5-.11-.58Z"/>
          <path class="cls-5" d="m128.41,168.34c-.25-.2-.6-.16-.9-.11-.19.04-.38.07-.57.11-.39.07-.79.15-1.18.22-.18.03-.28.26-.25.43.03.18.2.32.39.31.4-.01.79-.03,1.19-.04.19,0,.39-.01.58-.02.25,0,.61-.06.78-.27.14-.18.16-.47-.04-.62Z"/>
          <path class="cls-5" d="m157.72,181.78c-1.26,0-1.16,1.95.09,1.95s1.16-1.95-.09-1.95Z"/>
          <path class="cls-5" d="m276.83,164.05c-1.53.91-2.68,2.55-3.59,4.05-.93,1.54-1.61,3.24-2.01,5-.81,3.6-.63,8.31,1.7,11.34.54.71,1.71.23,1.45-.68-.47-1.66-1.11-3.26-1.38-4.97-.27-1.75-.26-3.54.08-5.28.31-1.58.87-3.09,1.64-4.49.81-1.48,1.96-2.62,2.95-3.96.43-.58-.18-1.38-.85-.98Z"/>
          <g>
            <path class="cls-5" d="m270.16,167.45c-.15-.02-.29-.03-.45,0-.13.03-.25.11-.35.19-.17.12-.34.27-.48.43-.3.34-.5.73-.65,1.16-.12.36-.15.79-.1,1.17.03.3.1.55.25.81.04.08.09.15.15.22.13.17.25.27.42.34.22.14.5.2.73.04.22-.16.33-.43.26-.7,0-.11,0-.22-.04-.34,0-.03-.01-.06-.02-.08,0,.01,0,.01,0,.03,0-.01,0-.03,0-.04,0,0,0,0,0,0,0-.02,0-.05,0-.06-.01-.12-.03-.23-.07-.34,0,0-.02-.04-.02-.08,0,0,0,0,0-.01,0-.01,0-.03-.01-.04,0,.02,0,.02,0,.03,0-.03,0-.06,0-.09,0-.08,0-.15,0-.23,0-.02,0-.05,0-.07,0-.07.02-.14.03-.2.02-.13.08-.27.09-.4.01-.03.02-.05.03-.08.03-.07.07-.14.1-.2.01-.02.03-.05.05-.07,0,0,0,0,0,0,.04-.06.09-.11.13-.16.05-.05.1-.09.15-.14.09-.09.12-.19.17-.31.12-.29,0-.72-.36-.76Z"/>
            <path class="cls-5" d="m269.8,170.27s0-.03-.02-.1c0,0,0,0,0,0,0,.03.02.06.02.09Z"/>
            <path class="cls-5" d="m269.88,170.7c0-.11-.01-.12-.01-.08,0,.02,0,.04,0,.06,0,0,0,.01,0,.02Z"/>
          </g>
          <path class="cls-5" d="m174.45,256.19c-.95-.59-2.03-.69-3.13-.82-1.04-.12-2.09-.19-3.14-.21-2.18-.05-4.37.12-6.52.5-2.08.36-4.12.9-6.1,1.63-1.01.37-2.01.79-2.98,1.26-.97.46-2.09.93-2.91,1.63-.45.38-.17,1.27.48,1.02.94-.36,1.81-.95,2.73-1.37.93-.43,1.87-.81,2.84-1.15,2-.7,4.06-1.21,6.16-1.5,2.02-.29,4.07-.39,6.11-.3,1.04.04,2.07.14,3.1.29,1.04.15,2.04.42,3.1.29.68-.09.84-.9.27-1.25Z"/>
          <path class="cls-5" d="m167.98,250.78c-.53-.59-1.4-.58-2.14-.63-.7-.05-1.41-.05-2.11.01-1.42.13-2.76.63-4.01,1.28-.53.28-.1,1.08.44.92,1.22-.35,2.46-.46,3.73-.5.61-.02,1.21,0,1.82.08.68.09,1.35.36,2.02.1.56-.21.64-.82.26-1.24Z"/>
          <path class="cls-5" d="m154.38,73.53c-1.75-1.51-3.66-2.83-5.06-4.7-1.37-1.84-2.32-3.95-2.8-6.19-.5-2.35-.3-4.82.32-7.12.67-2.48,2.03-4.54,3.51-6.6.26-.37-.12-.92-.55-.64-3.47,2.33-5.4,6.92-5.73,10.97-.34,4.24,1.02,8.45,3.72,11.74,1.54,1.87,3.38,3.56,5.78,4.17.92.23,1.51-1.02.82-1.62Z"/>
          <path class="cls-5" d="m143.06,62.44c-.05-.1-.1-.18-.15-.28-.02-.04-.04-.07-.06-.11,0-.02-.07-.14-.02-.04.06.13-.07-.14-.05-.11-.03-.07-.06-.14-.1-.2-.01-.02-.02-.04-.02-.04,0-.02-.01-.03-.02-.04-.07-.16-.13-.32-.18-.48-.05-.15-.09-.31-.13-.46-.02-.08-.04-.15-.06-.23-.01-.05-.02-.1-.03-.14,0-.02,0-.03,0-.04-.01-.06-.02-.13-.03-.19,0-.01,0-.03,0-.04-.01-.07-.02-.15-.03-.22-.02-.18-.02-.36-.02-.54.01-.44-.68-.59-.85-.18-.14.35-.27.72-.32,1.09-.06.46-.05.9.04,1.35.08.4.21.81.41,1.17.09.16.19.31.3.46.14.19.3.33.54.39.07.02.15.03.23.04.26.03.61-.11.64-.42,0-.05.01-.11.02-.16.03-.21.01-.38-.08-.57Z"/>
          <path class="cls-5" d="m190.1,53.64c-.12-.58-.33-1.15-.58-1.69-.53-1.19-1.21-2.27-2.07-3.25-1.58-1.81-3.93-3.55-6.4-3.73-.73-.05-.85,1.02-.28,1.31.98.5,2.01.9,2.93,1.5.88.58,1.69,1.3,2.37,2.11.68.81,1.29,1.71,1.73,2.68.23.5.4,1.03.58,1.55.17.5.33,1.24.78,1.56.23.17.58.21.78-.05.43-.55.29-1.36.16-1.99Z"/>
          <g>
            <path class="cls-5" d="m190.86,46.15c-.06-.1-.13-.2-.2-.3-.11-.13-.22-.28-.36-.38-.49-.36-1.07-.58-1.69-.54-.25.01-.44.21-.46.45-.02.25.14.47.38.52.03,0,.06.02.09.03,0,0,.03,0,.05.01,0,0,0,0,0,0,0,0,.02,0,.02,0-.01,0-.01,0-.02,0,.02,0,.05.02.07.03.08.03.15.08.22.12.12.09.24.19.34.31.05.06.11.13.16.19l-.12-.14c.11.13.2.27.27.42.01.03.03.06.04.09.01.03.02.07.03.1.03.1.07.18.12.27l-.08-.18c.05.12.09.24.16.35.14.23.43.34.69.29.27-.05.48-.25.55-.52.1-.39-.07-.8-.26-1.14Z"/>
            <path class="cls-5" d="m188.62,45.93s.02,0,.06.02c0,0,0,0,0,0-.02,0-.04-.01-.06-.02Z"/>
          </g>
          <path class="cls-5" d="m195.06,28.92c-.75,0-1.43.28-2.15.46-.81.2-1.58.48-2.38.72-1.54.47-3.08.89-4.67,1.13-3.14.48-6.36.47-9.49-.09-5.8-1.04-11.17-3.9-15.35-8.05-1.12-1.11-2.12-2.31-3.06-3.57-.99-1.32-1.82-2.75-2.8-4.08-.32-.43-.97-.12-.84.4.7,2.92,2.63,5.56,4.57,7.8,2.01,2.32,4.37,4.35,6.99,5.95,5.66,3.47,12.41,4.9,19,4.17,1.93-.21,3.87-.58,5.72-1.17.87-.28,1.8-.59,2.6-1.03.8-.45,1.77-.99,2.3-1.75.26-.37.06-.88-.42-.88Z"/>
          <path class="cls-5" d="m202.3,28.72c-.06-.26-.37-.38-.6-.31-.59.17-.92.65-1.28,1.11-.37.48-.74.96-1.15,1.41-.82.89-1.73,1.67-2.74,2.33-2,1.32-4.42,2.22-6.8,2.51-.53.06-.5.82.04.83,2.72.04,5.25-.68,7.58-2.08,1.15-.69,2.22-1.53,3.15-2.5.79-.82,2.08-2.07,1.8-3.3Z"/>
          <path class="cls-5" d="m113.55,74.75c-1.06-2.8-2.45-5.5-4.2-7.92-1.73-2.4-3.78-4.76-6.26-6.4-.63-.42-1.17.56-.7,1.04,1.79,1.85,3.57,3.63,5.05,5.75,1.41,2.02,2.6,4.19,3.53,6.47,1.9,4.69,2.74,9.77,2.4,14.83-.69,10.07-6.41,19.05-14.9,24.4-4.68,2.95-10.16,4.81-15.66,5.42-1.09.12-.99,1.63.08,1.68,10.76.48,21.24-5.78,27.24-14.52,3.05-4.44,5.09-9.6,5.58-14.99.49-5.33-.27-10.74-2.16-15.75Z"/>
          <path class="cls-5" d="m57.44,59.01c-1-.22-1.87.24-2.74.67-.84.41-1.64.89-2.39,1.45-1.55,1.16-2.87,2.55-3.93,4.16-2.29,3.46-2.99,7.79-1.88,11.78.16.56,1.05.4,1.01-.18-.28-3.67.56-7.5,2.65-10.56.92-1.35,2.09-2.54,3.42-3.5.69-.49,1.41-.94,2.17-1.31.76-.38,1.54-.58,2.12-1.23.39-.44.15-1.15-.42-1.28Z"/>
          <path class="cls-5" d="m67.52,122.78c-.41-.35-1.04-.24-1.29.25-.32.62-.14,1.35-.11,2.02.03.69,0,1.36-.13,2.04-.24,1.31-.74,2.55-1.49,3.66-.69,1.02-1.6,1.88-2.63,2.55-.54.35-1.11.65-1.7.91-.57.25-1.28.36-1.78.75-.4.32-.28.86.19,1.02.68.23,1.52-.04,2.18-.23.71-.21,1.38-.51,2.02-.88,1.28-.73,2.45-1.75,3.33-2.94.94-1.27,1.58-2.76,1.89-4.3.16-.81.24-1.64.23-2.46-.01-.79-.05-1.82-.69-2.37Z"/>
          <path class="cls-5" d="m44.02,116.49c-.13.01-.28.01-.4.05-.14.05-.26.12-.39.18-.18.09-.34.21-.49.34-.35.29-.67.6-.93.97-.26.36-.48.73-.64,1.14-.18.47-.26.92-.26,1.42,0,.64.99.71,1.11.09.04-.18.08-.36.14-.54.01-.03.03-.07.03-.09.02-.06.04-.12.06-.18,0-.01,0-.02,0-.03,0,0,0,0,0-.02.02-.04.03-.08.05-.12.07-.17.15-.33.24-.49.05-.08.1-.16.15-.25,0,0,0,0,0,0,0,0,0,0,0-.01.03-.04.06-.08.09-.13.11-.15.23-.28.36-.41.07-.07.14-.13.21-.2,0,0,0,0,0,0,0,0,0,0,0,0,.03-.03.07-.05.1-.08.15-.12.31-.22.47-.33.19-.13.35-.27.52-.42.35-.33,0-.95-.44-.91Z"/>
          <path class="cls-5" d="m65.14,53.68c-.11-.17-.31-.31-.51-.35-.28-.06-.59.04-.78.26-.07.08-.14.16-.21.24-.07.08-.13.14-.21.21-.15.14-.31.27-.46.41-.03.04-.05.07-.08.11-.03.06-.05.12-.05.19,0,.11.01.23.08.32.05.07.12.14.2.18.11.06.27.07.39.03.2-.07.39-.14.59-.22.1-.04.19-.06.29-.09.11-.02.21-.05.32-.07.14-.05.26-.12.36-.24.09-.11.16-.23.19-.37.04-.21,0-.43-.11-.61Z"/>
          <path class="cls-5" d="m151.5,10.48c-.08-.22-.17-.42-.29-.62-.05-.08-.09-.16-.13-.23-.01-.02-.02-.03-.02-.04,0-.02-.02-.05-.02-.06-.07-.17-.13-.33-.18-.51-.02-.09-.05-.17-.07-.26,0-.03-.01-.06-.02-.09,0-.02,0-.03,0-.06-.05-.35-.09-.71-.08-1.07,0-.04,0-.09,0-.13,0,0,0,0,0,0,0,0,0,0,0,0,.01-.09.02-.18.04-.27.04-.22.08-.43.1-.66.04-.54-.79-.81-1.1-.39-.28.37-.42.85-.51,1.31-.08.43-.13.89-.08,1.33.05.44.14.87.29,1.29.18.49.4.96.81,1.3.26.21.66.27.95.07.27-.19.44-.56.32-.89Z"/>
          <path class="cls-5" d="m148,6.78c-.01-.18-.02-.36-.06-.54-.03-.13-.08-.25-.12-.37-.08-.24-.33-.44-.59-.41-.1,0-.2.04-.3.1-.14.08-.21.23-.26.37-.04.12-.08.24-.12.37-.03.11-.02.23-.03.34,0,.07-.01.13-.02.2-.02.26-.05.53,0,.79.03.2.09.39.25.53.13.1.27.17.44.18.36.03.73-.22.79-.59.05-.31.04-.64.01-.96Z"/>
          <g>
            <path class="cls-5" d="m148.21,223.77s-.08.09,0,0h0Z"/>
            <path class="cls-5" d="m149.36,222.33c-.08-.01-.16-.03-.24-.03-.05,0-.1,0-.14-.01.06,0,.07,0,.02,0-.07,0-.14-.01-.21-.02-.2-.01-.37,0-.57.04-.37.07-.72.22-1.04.41-.32.18-.63.43-.85.72-.27.36-.5.75-.57,1.19-.06.42.14.82.55.97.36.13.89-.02,1.04-.41.07-.18.13-.35.2-.53-.02.07-.05.14-.07.21.08-.22.18-.42.31-.61-.04.06-.08.12-.12.18.04-.06.08-.11.11-.17.11-.15.22-.3.35-.43.04-.03.08-.07.11-.1-.02.02-.02.02-.03.03,0,0,.02-.02.03-.03.07-.05.14-.11.22-.15.07-.05.15-.09.23-.13.02,0,.01,0,.02,0,.04-.02.08-.04.12-.05.04-.02.08-.05.13-.07.02,0,.02-.01.03-.02.04-.02.1-.04.1-.04.05-.02.1-.03.14-.04.01,0,.03,0,.04,0,0,0,0,0,.02,0,.22-.03.4-.17.42-.41.02-.22-.13-.43-.35-.47Z"/>
          </g>
          <path class="cls-5" d="m147,233.48c-.15-.56-.38-1.1-.57-1.64-.2-.54-.41-1.08-.61-1.63-.13-.34-.51-.59-.87-.45-.36.13-.57.5-.45.87.17.55.33,1.11.51,1.66.18.55.32,1.12.55,1.65.13.32.4.54.76.53.13,0,.27-.04.38-.12.28-.21.4-.53.31-.86Z"/>
          <path class="cls-5" d="m165.07,231.28c-.03-.31-.07-.61-.1-.92l-.1-.92c-.02-.15-.03-.31-.05-.46-.03-.17-.09-.33-.14-.49-.12-.36-.67-.35-.74.04-.03.16-.07.33-.08.5,0,.15,0,.31,0,.46l.02,1.85c0,.18,0,.37.03.55.06.24.16.4.37.54.14.09.39.08.51-.03.19-.16.27-.33.3-.57.02-.18,0-.37-.03-.55Z"/>
          <path class="cls-5" d="m164.63,234.51s-.02-.06-.03-.09c0,0,0,0,0-.01,0-.08-.02-.15-.06-.21-.02-.05-.04-.09-.08-.12-.04-.06-.1-.11-.17-.14-.04-.02-.09-.03-.13-.05-.05,0-.09,0-.14-.01-.08,0-.14.02-.21.06-.01,0-.02.01-.03.02-.02,0-.03,0-.05,0-.06.03-.11.05-.17.08-.05.04-.09.08-.14.12-.02.02-.04.05-.06.08-.03.05-.04.05-.06.09,0,.02-.02.05-.03.07-.02.05-.04.09-.05.14-.04.08-.06.16-.06.25-.01.09,0,.17.02.26.03.09.07.17.14.23.05.07.12.13.2.17.05.02.11.04.16.06.12.02.23.02.35-.02.05-.03.11-.05.16-.08.1-.07.18-.15.24-.26.03-.04.05-.08.08-.13.01-.02.03-.04.04-.06,0,0,0,0,0-.01.06-.1.06-.17.07-.27.01-.06,0-.12,0-.18Z"/>
        </g>
      </g>
    </g>
  </g>
</svg>